<mxfile host="app.diagrams.net" modified="2020-12-04T14:07:12.711Z" agent="5.0 (Windows NT 10.0; Win64; x64) AppleWebKit/537.36 (KHTML, like Gecko) Chrome/86.0.4240.198 Safari/537.36" etag="Qd8ryR6lo5N3ny8XNdsd" version="13.10.8" type="github">
  <diagram id="_6ZOjBPBQkkBPkeE6T8r" name="Page-1">
    <mxGraphModel dx="868" dy="470" grid="1" gridSize="10" guides="1" tooltips="1" connect="1" arrows="1" fold="1" page="1" pageScale="1" pageWidth="1169" pageHeight="827" background="#283618" math="0" shadow="0">
      <root>
        <mxCell id="0" />
        <mxCell id="1" parent="0" />
        <mxCell id="3Fs-QdQnjXKm7a4bQGye-3" value="" style="edgeStyle=orthogonalEdgeStyle;orthogonalLoop=1;jettySize=auto;html=1;labelBackgroundColor=#283618;strokeColor=#DDA15E;fontColor=#FEFAE0;curved=1;" parent="1" source="3Fs-QdQnjXKm7a4bQGye-1" target="3Fs-QdQnjXKm7a4bQGye-2" edge="1">
          <mxGeometry relative="1" as="geometry" />
        </mxCell>
        <mxCell id="3Fs-QdQnjXKm7a4bQGye-1" value="Точка входа" style="ellipse;whiteSpace=wrap;html=1;aspect=fixed;fillColor=#fff2cc;strokeColor=#d6b656;rounded=1;" parent="1" vertex="1">
          <mxGeometry x="40" y="80" width="80" height="80" as="geometry" />
        </mxCell>
        <mxCell id="3Fs-QdQnjXKm7a4bQGye-6" value="" style="edgeStyle=orthogonalEdgeStyle;orthogonalLoop=1;jettySize=auto;html=1;labelBackgroundColor=#283618;strokeColor=#DDA15E;fontColor=#FEFAE0;curved=1;" parent="1" source="3Fs-QdQnjXKm7a4bQGye-2" target="3Fs-QdQnjXKm7a4bQGye-5" edge="1">
          <mxGeometry relative="1" as="geometry" />
        </mxCell>
        <mxCell id="j7B4MaAmdwoiwm2OVv-W-2" value="" style="edgeStyle=orthogonalEdgeStyle;rounded=0;orthogonalLoop=1;jettySize=auto;html=1;fillColor=#fff2cc;strokeColor=#d6b656;" edge="1" parent="1" source="3Fs-QdQnjXKm7a4bQGye-2" target="j7B4MaAmdwoiwm2OVv-W-1">
          <mxGeometry relative="1" as="geometry" />
        </mxCell>
        <mxCell id="3Fs-QdQnjXKm7a4bQGye-2" value="В наличии" style="whiteSpace=wrap;html=1;fillColor=#BC6C25;strokeColor=#DDA15E;fontColor=#FEFAE0;rounded=1;" parent="1" vertex="1">
          <mxGeometry x="180" y="90" width="80" height="60" as="geometry" />
        </mxCell>
        <mxCell id="3Fs-QdQnjXKm7a4bQGye-4" value="Создать&amp;nbsp;&lt;br&gt;заказ" style="text;html=1;align=center;verticalAlign=middle;resizable=0;points=[];autosize=1;fontColor=#FEFAE0;rounded=1;" parent="1" vertex="1">
          <mxGeometry x="120" y="90" width="60" height="30" as="geometry" />
        </mxCell>
        <mxCell id="3Fs-QdQnjXKm7a4bQGye-8" value="" style="edgeStyle=orthogonalEdgeStyle;orthogonalLoop=1;jettySize=auto;html=1;labelBackgroundColor=#283618;strokeColor=#DDA15E;fontColor=#FEFAE0;curved=1;" parent="1" source="3Fs-QdQnjXKm7a4bQGye-5" target="3Fs-QdQnjXKm7a4bQGye-7" edge="1">
          <mxGeometry relative="1" as="geometry" />
        </mxCell>
        <mxCell id="3Fs-QdQnjXKm7a4bQGye-31" value="" style="edgeStyle=orthogonalEdgeStyle;orthogonalLoop=1;jettySize=auto;html=1;labelBackgroundColor=#283618;strokeColor=#DDA15E;fontColor=#FEFAE0;curved=1;" parent="1" source="3Fs-QdQnjXKm7a4bQGye-5" target="3Fs-QdQnjXKm7a4bQGye-30" edge="1">
          <mxGeometry relative="1" as="geometry" />
        </mxCell>
        <mxCell id="3Fs-QdQnjXKm7a4bQGye-5" value="В корзине" style="whiteSpace=wrap;html=1;fillColor=#BC6C25;strokeColor=#DDA15E;fontColor=#FEFAE0;rounded=1;" parent="1" vertex="1">
          <mxGeometry x="380" y="90" width="80" height="60" as="geometry" />
        </mxCell>
        <mxCell id="3Fs-QdQnjXKm7a4bQGye-12" value="" style="edgeStyle=orthogonalEdgeStyle;orthogonalLoop=1;jettySize=auto;html=1;labelBackgroundColor=#283618;strokeColor=#DDA15E;fontColor=#FEFAE0;curved=1;" parent="1" source="3Fs-QdQnjXKm7a4bQGye-7" target="3Fs-QdQnjXKm7a4bQGye-11" edge="1">
          <mxGeometry relative="1" as="geometry" />
        </mxCell>
        <mxCell id="3Fs-QdQnjXKm7a4bQGye-7" value="Заказано" style="whiteSpace=wrap;html=1;fillColor=#BC6C25;strokeColor=#DDA15E;fontColor=#FEFAE0;rounded=1;" parent="1" vertex="1">
          <mxGeometry x="580" y="90" width="80" height="60" as="geometry" />
        </mxCell>
        <mxCell id="3Fs-QdQnjXKm7a4bQGye-9" value="Возможность&lt;br&gt;&amp;nbsp;добавить&lt;br&gt;&amp;nbsp;товар в корзину" style="text;html=1;align=center;verticalAlign=middle;resizable=0;points=[];autosize=1;fontColor=#FEFAE0;rounded=1;" parent="1" vertex="1">
          <mxGeometry x="260" y="70" width="110" height="50" as="geometry" />
        </mxCell>
        <mxCell id="3Fs-QdQnjXKm7a4bQGye-10" value="Уточняется&lt;br&gt;&amp;nbsp;информация о заказе:&lt;br&gt;&amp;nbsp;дата и место" style="text;html=1;align=center;verticalAlign=middle;resizable=0;points=[];autosize=1;fontColor=#FEFAE0;rounded=1;" parent="1" vertex="1">
          <mxGeometry x="450" y="50" width="140" height="50" as="geometry" />
        </mxCell>
        <mxCell id="3Fs-QdQnjXKm7a4bQGye-15" value="" style="edgeStyle=orthogonalEdgeStyle;orthogonalLoop=1;jettySize=auto;html=1;labelBackgroundColor=#283618;strokeColor=#DDA15E;fontColor=#FEFAE0;curved=1;" parent="1" source="3Fs-QdQnjXKm7a4bQGye-11" target="3Fs-QdQnjXKm7a4bQGye-14" edge="1">
          <mxGeometry relative="1" as="geometry" />
        </mxCell>
        <mxCell id="3Fs-QdQnjXKm7a4bQGye-38" value="" style="edgeStyle=orthogonalEdgeStyle;orthogonalLoop=1;jettySize=auto;html=1;labelBackgroundColor=#283618;strokeColor=#DDA15E;fontColor=#FEFAE0;curved=1;" parent="1" source="3Fs-QdQnjXKm7a4bQGye-11" target="3Fs-QdQnjXKm7a4bQGye-37" edge="1">
          <mxGeometry relative="1" as="geometry" />
        </mxCell>
        <mxCell id="3Fs-QdQnjXKm7a4bQGye-11" value="Обработано" style="whiteSpace=wrap;html=1;fillColor=#BC6C25;strokeColor=#DDA15E;fontColor=#FEFAE0;rounded=1;" parent="1" vertex="1">
          <mxGeometry x="770" y="90" width="80" height="60" as="geometry" />
        </mxCell>
        <mxCell id="3Fs-QdQnjXKm7a4bQGye-13" value="Подтверждение заказа&lt;br&gt;&amp;nbsp;через звонок&lt;br&gt;&amp;nbsp;менеджера" style="text;html=1;align=center;verticalAlign=middle;resizable=0;points=[];autosize=1;fontColor=#FEFAE0;rounded=1;" parent="1" vertex="1">
          <mxGeometry x="640" y="60" width="140" height="50" as="geometry" />
        </mxCell>
        <mxCell id="3Fs-QdQnjXKm7a4bQGye-18" value="" style="edgeStyle=orthogonalEdgeStyle;orthogonalLoop=1;jettySize=auto;html=1;labelBackgroundColor=#283618;strokeColor=#DDA15E;fontColor=#FEFAE0;curved=1;" parent="1" source="3Fs-QdQnjXKm7a4bQGye-14" target="3Fs-QdQnjXKm7a4bQGye-17" edge="1">
          <mxGeometry relative="1" as="geometry" />
        </mxCell>
        <mxCell id="3Fs-QdQnjXKm7a4bQGye-41" value="" style="edgeStyle=orthogonalEdgeStyle;orthogonalLoop=1;jettySize=auto;html=1;labelBackgroundColor=#283618;strokeColor=#DDA15E;fontColor=#FEFAE0;curved=1;" parent="1" source="3Fs-QdQnjXKm7a4bQGye-14" target="3Fs-QdQnjXKm7a4bQGye-40" edge="1">
          <mxGeometry relative="1" as="geometry" />
        </mxCell>
        <mxCell id="3Fs-QdQnjXKm7a4bQGye-14" value="Собрано" style="whiteSpace=wrap;html=1;fillColor=#BC6C25;strokeColor=#DDA15E;fontColor=#FEFAE0;rounded=1;" parent="1" vertex="1">
          <mxGeometry x="950" y="90" width="75" height="60" as="geometry" />
        </mxCell>
        <mxCell id="3Fs-QdQnjXKm7a4bQGye-16" value="Подбор товара &lt;br&gt;на складе &lt;br&gt;кладовщиками" style="text;html=1;align=center;verticalAlign=middle;resizable=0;points=[];autosize=1;fontColor=#FEFAE0;rounded=1;" parent="1" vertex="1">
          <mxGeometry x="850" y="60" width="100" height="50" as="geometry" />
        </mxCell>
        <mxCell id="3Fs-QdQnjXKm7a4bQGye-20" value="" style="edgeStyle=orthogonalEdgeStyle;orthogonalLoop=1;jettySize=auto;html=1;labelBackgroundColor=#283618;strokeColor=#DDA15E;fontColor=#FEFAE0;curved=1;" parent="1" source="3Fs-QdQnjXKm7a4bQGye-17" target="3Fs-QdQnjXKm7a4bQGye-19" edge="1">
          <mxGeometry relative="1" as="geometry" />
        </mxCell>
        <mxCell id="3Fs-QdQnjXKm7a4bQGye-17" value="В пункте&lt;br&gt;&amp;nbsp;передачи" style="whiteSpace=wrap;html=1;fillColor=#BC6C25;strokeColor=#DDA15E;fontColor=#FEFAE0;rounded=1;" parent="1" vertex="1">
          <mxGeometry x="1120" y="90" width="82.5" height="60" as="geometry" />
        </mxCell>
        <mxCell id="3Fs-QdQnjXKm7a4bQGye-22" value="" style="edgeStyle=orthogonalEdgeStyle;orthogonalLoop=1;jettySize=auto;html=1;labelBackgroundColor=#283618;strokeColor=#DDA15E;fontColor=#FEFAE0;curved=1;" parent="1" source="3Fs-QdQnjXKm7a4bQGye-19" edge="1">
          <mxGeometry relative="1" as="geometry">
            <mxPoint x="1460" y="120" as="targetPoint" />
          </mxGeometry>
        </mxCell>
        <mxCell id="3Fs-QdQnjXKm7a4bQGye-44" value="" style="edgeStyle=orthogonalEdgeStyle;orthogonalLoop=1;jettySize=auto;html=1;labelBackgroundColor=#283618;strokeColor=#DDA15E;fontColor=#FEFAE0;curved=1;" parent="1" source="3Fs-QdQnjXKm7a4bQGye-19" target="3Fs-QdQnjXKm7a4bQGye-43" edge="1">
          <mxGeometry relative="1" as="geometry" />
        </mxCell>
        <mxCell id="3Fs-QdQnjXKm7a4bQGye-19" value="Оплачено" style="whiteSpace=wrap;html=1;fillColor=#BC6C25;strokeColor=#DDA15E;fontColor=#FEFAE0;rounded=1;" parent="1" vertex="1">
          <mxGeometry x="1280" y="90" width="73.75" height="60" as="geometry" />
        </mxCell>
        <mxCell id="3Fs-QdQnjXKm7a4bQGye-23" value="Передано на&lt;br&gt;&amp;nbsp;доставку" style="text;html=1;align=center;verticalAlign=middle;resizable=0;points=[];autosize=1;fontColor=#FEFAE0;rounded=1;" parent="1" vertex="1">
          <mxGeometry x="1030" y="80" width="90" height="30" as="geometry" />
        </mxCell>
        <mxCell id="3Fs-QdQnjXKm7a4bQGye-24" value="Принять&lt;br&gt;&amp;nbsp;оплату" style="text;html=1;align=center;verticalAlign=middle;resizable=0;points=[];autosize=1;fontColor=#FEFAE0;rounded=1;" parent="1" vertex="1">
          <mxGeometry x="1211" y="80" width="60" height="30" as="geometry" />
        </mxCell>
        <mxCell id="3Fs-QdQnjXKm7a4bQGye-28" value="&lt;span&gt;Заказ передан&lt;/span&gt;&lt;br&gt;&lt;span&gt;заказчику&lt;/span&gt;" style="text;html=1;align=center;verticalAlign=middle;resizable=0;points=[];autosize=1;fontColor=#FEFAE0;rounded=1;" parent="1" vertex="1">
          <mxGeometry x="1350" y="80" width="100" height="30" as="geometry" />
        </mxCell>
        <mxCell id="3Fs-QdQnjXKm7a4bQGye-29" value="Точка &lt;br&gt;выхода" style="ellipse;whiteSpace=wrap;html=1;aspect=fixed;fillColor=#fff2cc;strokeColor=#d6b656;rounded=1;" parent="1" vertex="1">
          <mxGeometry x="1460" y="80" width="80" height="80" as="geometry" />
        </mxCell>
        <mxCell id="3Fs-QdQnjXKm7a4bQGye-30" value="Отменено&amp;nbsp;&lt;br&gt;клиентом" style="whiteSpace=wrap;html=1;fillColor=#BC6C25;strokeColor=#DDA15E;fontColor=#FEFAE0;rounded=1;" parent="1" vertex="1">
          <mxGeometry x="375" y="250" width="90" height="60" as="geometry" />
        </mxCell>
        <mxCell id="3Fs-QdQnjXKm7a4bQGye-32" value="Убрать&lt;br&gt;из&lt;br&gt;корзины" style="text;html=1;align=center;verticalAlign=middle;resizable=0;points=[];autosize=1;fontColor=#FEFAE0;rounded=1;" parent="1" vertex="1">
          <mxGeometry x="354" y="170" width="60" height="50" as="geometry" />
        </mxCell>
        <mxCell id="3Fs-QdQnjXKm7a4bQGye-35" value="" style="endArrow=classic;html=1;exitX=0.25;exitY=1;exitDx=0;exitDy=0;entryX=0.989;entryY=0.617;entryDx=0;entryDy=0;entryPerimeter=0;labelBackgroundColor=#283618;strokeColor=#DDA15E;fontColor=#FEFAE0;curved=1;" parent="1" source="3Fs-QdQnjXKm7a4bQGye-7" target="3Fs-QdQnjXKm7a4bQGye-30" edge="1">
          <mxGeometry width="50" height="50" relative="1" as="geometry">
            <mxPoint x="510" y="190" as="sourcePoint" />
            <mxPoint x="510" y="250" as="targetPoint" />
          </mxGeometry>
        </mxCell>
        <mxCell id="3Fs-QdQnjXKm7a4bQGye-36" value="Отменить&lt;br&gt;заказ" style="text;html=1;align=center;verticalAlign=middle;resizable=0;points=[];autosize=1;fontColor=#FEFAE0;rounded=1;" parent="1" vertex="1">
          <mxGeometry x="560" y="200" width="70" height="30" as="geometry" />
        </mxCell>
        <mxCell id="3Fs-QdQnjXKm7a4bQGye-37" value="Не поступил&lt;br&gt;звонок" style="whiteSpace=wrap;html=1;fillColor=#BC6C25;strokeColor=#DDA15E;fontColor=#FEFAE0;rounded=1;" parent="1" vertex="1">
          <mxGeometry x="770" y="240" width="80" height="60" as="geometry" />
        </mxCell>
        <mxCell id="3Fs-QdQnjXKm7a4bQGye-39" value="Ошибка&amp;nbsp;&lt;br&gt;сети" style="text;html=1;align=center;verticalAlign=middle;resizable=0;points=[];autosize=1;fontColor=#FEFAE0;rounded=1;" parent="1" vertex="1">
          <mxGeometry x="740" y="170" width="60" height="30" as="geometry" />
        </mxCell>
        <mxCell id="3Fs-QdQnjXKm7a4bQGye-40" value="Товар&lt;br&gt;отсутствует" style="whiteSpace=wrap;html=1;fillColor=#BC6C25;strokeColor=#DDA15E;fontColor=#FEFAE0;rounded=1;" parent="1" vertex="1">
          <mxGeometry x="942.5" y="240" width="90" height="60" as="geometry" />
        </mxCell>
        <mxCell id="3Fs-QdQnjXKm7a4bQGye-43" value="Ошибка системы&lt;br&gt;оплаты" style="whiteSpace=wrap;html=1;fillColor=#BC6C25;strokeColor=#DDA15E;fontColor=#FEFAE0;rounded=1;" parent="1" vertex="1">
          <mxGeometry x="1271.88" y="240" width="90" height="60" as="geometry" />
        </mxCell>
        <mxCell id="3Fs-QdQnjXKm7a4bQGye-45" value="Отмена&lt;br&gt;платежа" style="text;html=1;align=center;verticalAlign=middle;resizable=0;points=[];autosize=1;fontColor=#FEFAE0;rounded=1;" parent="1" vertex="1">
          <mxGeometry x="1320" y="170" width="60" height="30" as="geometry" />
        </mxCell>
        <mxCell id="3Fs-QdQnjXKm7a4bQGye-46" value="" style="endArrow=classic;html=1;exitX=0.25;exitY=1;exitDx=0;exitDy=0;entryX=1;entryY=1;entryDx=0;entryDy=0;labelBackgroundColor=#283618;strokeColor=#DDA15E;fontColor=#FEFAE0;curved=1;" parent="1" source="3Fs-QdQnjXKm7a4bQGye-19" target="3Fs-QdQnjXKm7a4bQGye-30" edge="1">
          <mxGeometry width="50" height="50" relative="1" as="geometry">
            <mxPoint x="1340" y="230" as="sourcePoint" />
            <mxPoint x="470" y="310" as="targetPoint" />
            <Array as="points">
              <mxPoint x="1240" y="210" />
              <mxPoint x="1100" y="330" />
            </Array>
          </mxGeometry>
        </mxCell>
        <mxCell id="3Fs-QdQnjXKm7a4bQGye-47" value="Отмена&lt;br&gt;платежа" style="text;html=1;align=center;verticalAlign=middle;resizable=0;points=[];autosize=1;fontColor=#FEFAE0;rounded=1;" parent="1" vertex="1">
          <mxGeometry x="1151" y="200" width="60" height="30" as="geometry" />
        </mxCell>
        <mxCell id="3Fs-QdQnjXKm7a4bQGye-48" value="Отмена&lt;br&gt;сборки" style="text;html=1;align=center;verticalAlign=middle;resizable=0;points=[];autosize=1;fontColor=#FEFAE0;rounded=1;" parent="1" vertex="1">
          <mxGeometry x="930" y="170" width="60" height="30" as="geometry" />
        </mxCell>
        <mxCell id="j7B4MaAmdwoiwm2OVv-W-1" value="Нет в&amp;nbsp;&lt;br&gt;наличии на&amp;nbsp;&lt;br&gt;сайте" style="whiteSpace=wrap;html=1;rounded=1;fontColor=#FEFAE0;strokeColor=#DDA15E;fillColor=#BC6C25;" vertex="1" parent="1">
          <mxGeometry x="170" y="250" width="100" height="60" as="geometry" />
        </mxCell>
        <mxCell id="j7B4MaAmdwoiwm2OVv-W-5" value="&lt;font color=&quot;#ffffff&quot;&gt;Товар не&lt;br&gt;найден&lt;br&gt;&lt;/font&gt;" style="text;html=1;align=center;verticalAlign=middle;resizable=0;points=[];autosize=1;" vertex="1" parent="1">
          <mxGeometry x="150" y="170" width="60" height="30" as="geometry" />
        </mxCell>
      </root>
    </mxGraphModel>
  </diagram>
</mxfile>
